<?xml version="1.0" encoding="utf-8"?>
<!-- Generator: Adobe Illustrator 16.0.0, SVG Export Plug-In . SVG Version: 6.00 Build 0)  -->
<!DOCTYPE svg PUBLIC "-//W3C//DTD SVG 1.1//EN" "http://www.w3.org/Graphics/SVG/1.1/DTD/svg11.dtd">
<svg version="1.1" id="Layer_1" xmlns="http://www.w3.org/2000/svg" xmlns:xlink="http://www.w3.org/1999/xlink" x="0px" y="0px"
	 width="32px" height="32px" viewBox="0 0 32 32" enable-background="new 0 0 32 32" xml:space="preserve">
<circle fill="#000011" cx="15.979" cy="16.178" r="16"/>
<g>
	<path fill="#8972DC" d="M19.123,25.246H7.412v-0.385h0.744c0.335-0.048,0.664-0.092,0.984-0.132c0.319-0.04,0.571-0.159,0.756-0.36
		c0.184-0.199,0.3-0.555,0.348-1.067l0.049-1.104V10.822l-0.049-1.104c-0.048-0.512-0.168-0.872-0.359-1.08
		C9.691,8.43,9.424,8.302,9.079,8.253C8.735,8.206,8.423,8.178,8.144,8.169c-0.28-0.008-0.532-0.02-0.756-0.036V7.75l11.208-0.024
		c2.607,0,4.34,0.288,5.196,0.864c0.855,0.576,1.451,1.196,1.787,1.86s0.505,1.38,0.505,2.148c0,0.72-0.112,1.408-0.337,2.064
		c-0.224,0.656-0.567,1.196-1.031,1.62c-0.465,0.424-1.041,0.74-1.729,0.948s-1.576,0.312-2.664,0.312
		c-1.04,0-1.88,0.005-2.52,0.013c-0.641,0.009-1.176,0.021-1.608,0.036v4.607l0.048,1.104c0.049,0.513,0.164,0.868,0.349,1.067
		c0.184,0.201,0.451,0.324,0.804,0.373c0.352,0.047,0.696,0.076,1.032,0.084s0.567,0.02,0.695,0.035V25.246z M20.084,12.55
		c0-0.912-0.12-1.8-0.36-2.664c-0.24-0.864-0.604-1.364-1.092-1.5c-0.488-0.136-0.96-0.208-1.416-0.216
		c-0.456-0.008-0.797-0.012-1.021-0.012v8.976c0.32-0.017,0.648-0.032,0.984-0.048s0.78-0.076,1.332-0.18s0.951-0.584,1.2-1.44
		C19.959,14.61,20.084,13.638,20.084,12.55z"/>
</g>
</svg>
